<?xml version="1.0" standalone="no"?>
<!DOCTYPE svg PUBLIC "-//W3C//DTD SVG 20010904//EN"
 "http://www.w3.org/TR/2001/REC-SVG-20010904/DTD/svg10.dtd">
<svg version="1.0" xmlns="http://www.w3.org/2000/svg"
 width="1024.000000pt" height="1024.000000pt" viewBox="0 0 1024.000000 1024.000000"
 preserveAspectRatio="xMidYMid meet">
<metadata>
Created by potrace 1.14, written by Peter Selinger 2001-2017
</metadata>
<g transform="translate(0.000000,1024.000000) scale(0.100000,-0.100000)"
fill="#000000" stroke="none">
<path d="M0 5120 l0 -5120 5120 0 5120 0 0 5120 0 5120 -5120 0 -5120 0 0
-5120z m3950 431 c0 -767 -1 -1396 -3 -1397 -1 -1 -625 -4 -1387 -6 l-1385 -3
-3 1403 -2 1402 1390 -2 1390 -3 0 -1394z m2160 129 l0 -940 -160 0 -160 0 0
940 0 940 160 0 160 0 0 -940z m-1069 400 c30 -5 90 -28 135 -50 142 -69 253
-213 304 -390 27 -96 38 -289 21 -386 -46 -263 -246 -481 -496 -540 -53 -12
-104 -15 -210 -12 -135 4 -166 10 -277 53 -17 7 -18 -11 -18 -289 l0 -296
-165 0 -165 0 0 950 0 950 160 0 160 0 0 -29 c0 -15 3 -49 6 -74 l7 -46 43 38
c53 47 152 96 230 115 70 17 191 20 265 6z m1729 -462 c0 -497 -1 -487 75
-561 54 -53 109 -71 197 -65 110 7 189 57 253 159 51 79 55 122 55 531 l0 378
30 0 30 0 0 -655 0 -655 -25 0 c-24 0 -25 2 -25 70 0 39 -3 70 -6 70 -3 0 -31
-21 -62 -47 -114 -93 -264 -142 -392 -128 -240 25 -372 135 -436 360 -15 52
-18 124 -22 523 l-4 462 166 0 166 0 0 -442z m-4238 -1795 c8 -10 41 -64 74
-121 32 -56 63 -101 68 -99 5 2 39 55 76 118 l66 114 45 0 44 0 6 -60 c4 -33
10 -151 14 -262 l7 -203 -46 0 c-55 0 -52 -10 -63 199 l-8 153 -58 -101 c-52
-90 -62 -101 -87 -101 -24 0 -34 12 -86 97 l-59 98 -7 -55 c-3 -30 -7 -98 -8
-150 -3 -132 -7 -143 -53 -143 -20 0 -40 2 -43 6 -6 6 14 493 21 515 7 19 79
15 97 -5z m2168 -253 l0 -260 -45 0 -45 0 0 260 0 260 45 0 45 0 0 -260z m516
234 c93 -69 99 -204 11 -266 -24 -17 -51 -24 -112 -28 l-80 -5 -3 -98 -3 -98
-42 3 -42 3 -3 258 -2 259 124 -4 c107 -3 128 -6 152 -24z m-1628 -66 l3 -57
47 -3 c46 -3 47 -3 47 -38 0 -35 0 -35 -47 -38 l-48 -3 0 -99 c0 -76 4 -102
16 -114 18 -19 24 -19 60 -5 24 9 30 7 46 -13 24 -32 23 -35 -22 -58 -51 -26
-99 -25 -141 3 -42 28 -57 78 -58 200 l-1 87 -30 0 c-28 0 -30 2 -30 40 0 38
2 40 30 40 30 0 30 1 30 53 0 30 3 57 7 61 4 4 25 6 48 4 l40 -3 3 -57z m2592
-8 l0 -60 50 0 c49 0 50 -1 50 -30 0 -29 -1 -30 -50 -30 l-50 0 0 -108 c0 -71
4 -112 12 -120 14 -14 57 -16 77 -3 10 7 20 2 33 -14 10 -13 18 -25 18 -28 0
-3 -24 -14 -53 -26 -48 -19 -56 -20 -92 -8 -67 23 -79 51 -84 188 l-3 119 -29
0 c-26 0 -29 4 -29 30 0 27 3 30 30 30 l30 0 0 60 0 60 45 0 45 0 0 -60z
m-1744 -59 c69 -32 74 -45 74 -213 l0 -148 -39 0 c-22 0 -41 5 -43 11 -2 6
-20 2 -48 -10 -57 -26 -81 -26 -130 -1 -47 24 -63 51 -63 107 0 83 55 126 167
127 76 1 90 12 57 45 -26 26 -98 28 -141 6 -28 -14 -29 -14 -49 14 -12 16 -21
31 -21 34 0 4 58 30 90 41 34 11 108 4 146 -13z m1119 8 c24 -6 55 -24 72 -41
28 -29 28 -30 31 -179 l3 -149 -40 0 c-29 0 -41 4 -41 14 0 12 -12 9 -55 -10
-49 -23 -58 -24 -95 -13 -55 17 -90 59 -90 110 0 89 56 132 172 131 73 0 80 6
53 45 -22 32 -76 39 -131 18 -43 -16 -46 -16 -59 1 -29 38 -11 58 68 74 59 11
63 11 112 -1z m-2435 -129 c0 -117 2 -132 20 -150 27 -27 73 -25 107 4 28 24
28 26 31 150 l4 126 44 0 44 0 0 -185 0 -185 -45 0 c-34 0 -45 4 -45 16 0 13
-5 12 -34 -5 -46 -29 -124 -29 -160 0 -49 38 -56 66 -56 219 l0 140 45 0 45 0
0 -130z m747 -3 c1 -106 5 -132 19 -148 25 -28 76 -25 107 7 25 25 27 32 29
148 l3 121 43 0 c23 0 42 -3 42 -7 0 -5 0 -87 0 -183 l0 -175 -40 0 c-29 0
-40 4 -40 15 0 19 -3 19 -42 -5 -40 -24 -107 -26 -149 -4 -52 27 -69 80 -69
225 0 69 3 129 7 133 4 4 25 6 48 4 l40 -3 2 -128z m2126 126 c2 -5 0 -23 -5
-40 -8 -30 -12 -33 -46 -33 -39 0 -73 -21 -91 -57 -6 -12 -11 -69 -11 -127 l0
-106 -40 0 -40 0 0 180 0 180 40 0 c33 0 40 -3 40 -20 0 -25 2 -25 46 5 35 24
98 34 107 18z m666 -20 c45 -34 51 -58 51 -205 l0 -138 -40 0 -40 0 0 124 c0
110 -2 126 -21 150 -35 45 -107 29 -138 -31 -6 -12 -11 -71 -11 -132 l0 -111
-40 0 -40 0 0 180 0 180 40 0 c29 0 40 -4 40 -15 0 -19 3 -19 48 6 45 25 111
21 151 -8z m418 0 c39 -28 63 -72 72 -132 l8 -51 -138 0 c-135 0 -139 -1 -139
-21 0 -12 14 -34 31 -50 26 -24 40 -29 83 -29 33 0 62 7 83 20 l32 19 21 -26
21 -27 -37 -22 c-78 -47 -190 -41 -255 13 -42 36 -59 79 -59 150 0 73 30 129
85 161 52 30 150 27 192 -5z m236 -3 c-3 -12 0 -20 7 -20 6 0 23 9 37 20 38
30 53 26 53 -15 0 -28 -4 -35 -19 -35 -11 0 -31 -14 -45 -31 -25 -29 -26 -37
-26 -140 l0 -109 -40 0 -40 0 0 175 0 175 39 0 c34 0 38 -3 34 -20z"/>
<path d="M1377 6733 c-4 -3 -7 -538 -7 -1188 l0 -1182 1181 -7 c680 -4 1185
-4 1190 1 5 5 8 519 7 1194 l-3 1184 -1181 3 c-649 1 -1184 -1 -1187 -5z m775
-845 c3 -638 3 -644 26 -710 38 -113 109 -187 217 -225 77 -28 270 -24 346 6
72 27 137 84 172 150 54 99 57 130 57 804 l0 617 180 0 180 0 0 -619 c0 -389
-4 -649 -11 -698 -24 -178 -101 -328 -222 -438 -79 -72 -232 -149 -339 -170
-101 -20 -297 -19 -396 1 -304 62 -517 291 -562 601 -5 39 -10 339 -10 696 l0
627 180 0 179 0 3 -642z"/>
<path d="M4722 5784 c-64 -24 -146 -104 -184 -182 l-33 -66 -3 -238 -3 -238
33 -20 c70 -42 127 -55 253 -55 117 0 121 1 183 34 156 85 231 246 211 455 -8
83 -45 177 -92 231 -14 17 -49 44 -79 60 -46 26 -65 30 -148 32 -67 2 -108 -2
-138 -13z"/>
<path d="M5034 3737 c-3 -8 -4 -45 -2 -83 l3 -69 57 0 c71 1 102 25 102 80 0
55 -35 85 -101 85 -36 0 -55 -4 -59 -13z"/>
<path d="M4296 3459 c-14 -11 -26 -28 -26 -38 0 -48 87 -69 128 -31 24 22 38
63 27 79 -12 20 -100 13 -129 -10z"/>
<path d="M5440 3460 c-11 -11 -20 -29 -20 -40 0 -26 34 -60 60 -60 29 0 78 27
90 49 5 11 10 31 10 45 0 25 -2 26 -60 26 -47 0 -64 -4 -80 -20z"/>
<path d="M6935 3608 c-28 -15 -55 -50 -55 -70 0 -16 11 -18 95 -18 90 0 95 1
95 21 0 11 -13 34 -29 50 -31 31 -70 37 -106 17z"/>
</g>
</svg>
