<svg width="25" height="24" viewBox="0 0 25 24" fill="none" xmlns="http://www.w3.org/2000/svg">
<path d="M12.5 2.25C6.8999 2.25 2.34375 6.62391 2.34375 12C2.34375 17.3761 6.8999 21.75 12.5 21.75C18.1001 21.75 22.6562 17.3761 22.6562 12C22.6562 6.62391 18.1001 2.25 12.5 2.25ZM12.5 17.2458C12.3069 17.2458 12.118 17.1908 11.9575 17.0878C11.7969 16.9848 11.6717 16.8384 11.5978 16.667C11.5239 16.4957 11.5045 16.3072 11.5422 16.1254C11.5799 15.9435 11.6729 15.7765 11.8095 15.6454C11.946 15.5143 12.12 15.425 12.3095 15.3888C12.4989 15.3526 12.6953 15.3712 12.8737 15.4421C13.0522 15.5131 13.2047 15.6333 13.312 15.7874C13.4193 15.9416 13.4766 16.1229 13.4766 16.3083C13.4766 16.5569 13.3737 16.7954 13.1905 16.9712C13.0074 17.147 12.759 17.2458 12.5 17.2458ZM13.5605 7.81687L13.2803 13.5356C13.2803 13.7345 13.198 13.9253 13.0515 14.066C12.9049 14.2066 12.7062 14.2856 12.499 14.2856C12.2918 14.2856 12.0931 14.2066 11.9466 14.066C11.8001 13.9253 11.7178 13.7345 11.7178 13.5356L11.4375 7.81969V7.81734C11.4314 7.67997 11.4542 7.54282 11.5048 7.41415C11.5553 7.28549 11.6324 7.16797 11.7315 7.06868C11.8306 6.96938 11.9496 6.89037 12.0813 6.83639C12.2131 6.78241 12.3548 6.75458 12.498 6.75458C12.6413 6.75458 12.783 6.78241 12.9148 6.83639C13.0465 6.89037 13.1655 6.96938 13.2646 7.06868C13.3637 7.16797 13.4408 7.28549 13.4913 7.41415C13.5419 7.54282 13.5647 7.67997 13.5586 7.81734L13.5605 7.81687Z" fill="white"/>
</svg>
