<svg width="95" height="48" viewBox="0 0 95 48" fill="none" xmlns="http://www.w3.org/2000/svg">
<path d="M16.1087 0C16.1846 0.0117771 16.2605 0.0302839 16.338 0.0319664C18.7154 0.114406 20.9865 0.635962 23.1227 1.69253C24.8763 2.56067 26.4291 3.70641 27.7443 5.15668C29.2718 6.8408 30.2481 8.80757 30.7387 11.02C31.0574 12.4517 31.167 13.902 31.0995 15.364C31.0119 17.2652 30.5566 19.0822 29.8148 20.832C29.1353 22.4353 28.2467 23.9192 27.2165 25.3207C26.2875 26.5842 25.2573 27.7636 24.1529 28.8757C22.1482 30.8963 20.1401 32.9119 18.1337 34.9308C17.579 35.4877 17.0259 36.0463 16.4729 36.6048C16.4307 36.6486 16.3886 36.6923 16.3498 36.7344C16.3566 36.7495 16.3582 36.7546 16.3599 36.7596C16.3633 36.763 16.3667 36.768 16.3717 36.7697C16.3818 36.7731 16.3936 36.7748 16.4038 36.7765C16.4257 36.7765 16.4493 36.7765 16.4712 36.7765C21.5463 36.7765 26.6213 36.7765 31.6964 36.7781C31.7082 36.7781 31.7183 36.7815 31.7301 36.7832C31.7352 36.7832 31.7402 36.7865 31.7689 36.7983C31.7841 37.0355 31.7672 37.2862 31.7773 37.5285C31.7925 37.5386 31.7959 37.542 31.8009 37.5436C31.806 37.5453 31.8127 37.5487 31.8161 37.547C31.8313 37.542 31.8481 37.5369 31.8633 37.5285C34.6285 35.9319 37.3953 34.3335 40.1605 32.7369C40.1655 32.7352 40.1706 32.7369 40.2009 32.7319C40.2245 32.7891 40.2532 32.853 40.2768 32.9186C40.5297 33.5882 40.8534 34.2191 41.2766 34.7979C42.1618 36.0076 43.3438 36.7882 44.7769 37.2021C45.4817 37.4057 46.2016 37.5083 46.9334 37.5487C47.5421 37.5823 48.1474 37.5689 48.751 37.5066C49.6581 37.4141 50.5382 37.2156 51.3374 36.763C52.7352 35.9689 53.5681 34.7794 53.7822 33.1794C53.9087 32.2288 53.8277 31.2967 53.4517 30.4084C52.8616 29.012 51.8179 28.1035 50.373 27.6492C49.5721 27.3968 48.7476 27.311 47.913 27.311C43.192 27.311 38.471 27.311 33.75 27.311C33.6725 27.311 33.5966 27.311 33.5089 27.311C33.5089 27.2404 33.5056 27.1916 33.5089 27.1428C33.5612 26.4109 33.6151 25.6791 33.6674 24.9472C33.7045 24.4324 33.7416 23.9192 33.7787 23.4044C33.8327 22.6675 33.8866 21.9289 33.9406 21.192C33.9777 20.6772 34.0131 20.164 34.0502 19.6492C34.1024 18.9224 34.1564 18.1956 34.2103 17.4705C34.2474 16.9624 34.2828 16.4526 34.3199 15.9445C34.3739 15.2076 34.4278 14.469 34.4801 13.7321C34.5189 13.1954 34.5543 12.6587 34.5931 12.122C34.6437 11.417 34.6976 10.7138 34.7482 10.0088C34.787 9.48391 34.8224 8.95731 34.8595 8.43239C34.9117 7.71735 34.964 7.00231 35.0163 6.28559C35.0534 5.77077 35.0905 5.25762 35.1276 4.7428C35.1798 4.01094 35.2338 3.27908 35.2877 2.54721C35.3231 2.05594 35.3585 1.56299 35.3956 1.07171C35.399 1.03302 35.4041 0.996004 35.4091 0.947214H62.0119C62.0119 0.947214 62.0254 0.958991 62.0288 0.962355C62.0321 0.96572 62.0372 0.970768 62.0372 0.975815C62.0423 1.01956 62.049 1.06498 62.049 1.10873C62.049 4.30368 62.0473 7.50032 62.0456 10.6953C62.0456 10.7104 62.0372 10.7272 62.0254 10.7609H45.3013C45.2507 10.9039 44.8039 16.8025 44.8208 17.0768C44.8831 17.0801 44.9472 17.0852 45.013 17.0852C46.0533 17.0852 47.0919 17.0869 48.1322 17.0852C48.9078 17.0835 49.6834 17.0936 50.4556 17.1642C53.9205 17.4805 57.0245 18.665 59.67 20.9615C61.6106 22.6456 62.919 24.7285 63.6474 27.1815C63.9357 28.1506 64.1229 29.1399 64.2325 30.1443C64.3336 31.0713 64.3741 32 64.3505 32.9304C64.3066 34.7054 64.0436 36.4433 63.4366 38.1207C62.6037 40.424 61.2144 42.3302 59.3142 43.8747C57.1425 45.6379 54.6826 46.792 51.9461 47.364C50.8771 47.5878 49.798 47.7174 48.7071 47.7712C47.6786 47.8217 46.6501 47.8048 45.625 47.7258C43.2021 47.5357 40.872 46.9821 38.6666 45.9407C37.1778 45.2374 35.8172 44.3457 34.6302 43.2C33.5426 42.1518 32.6507 40.9556 31.9274 39.6315C31.892 39.5676 31.8583 39.5054 31.806 39.4112C31.7925 39.4768 31.7807 39.5087 31.779 39.5424C31.7756 39.5929 31.779 39.6433 31.779 39.6938C31.779 42.0088 31.779 44.3239 31.779 46.6406V46.8492C31.6391 46.8862 0.767169 46.8997 0.472107 46.866C0.468735 46.8004 0.46199 46.7298 0.46199 46.6591C0.46199 44.445 0.46199 42.2309 0.46199 40.0151C0.46199 39.8133 0.467049 39.6114 0.460304 39.4095C0.456932 39.3052 0.490654 39.2311 0.561468 39.1571C1.3438 38.3512 2.12277 37.5436 2.90173 36.7361C5.88776 33.6437 8.87378 30.5514 11.8598 27.4591C13.3098 25.9567 14.7615 24.4576 16.2099 22.9518C17.1254 21.9996 17.9819 20.9985 18.7356 19.9117C19.2954 19.1024 19.7911 18.2562 20.1452 17.3359C20.4503 16.5434 20.6324 15.7274 20.5987 14.8745C20.565 14.0349 20.3913 13.229 19.9647 12.4955C19.3105 11.3716 18.3394 10.6784 17.0714 10.3924C16.3414 10.2276 15.6012 10.2158 14.8593 10.2864C13.8645 10.3823 12.9372 10.6784 12.0874 11.2034C11.1972 11.7518 10.4924 12.4904 9.90566 13.3468C9.53641 13.8852 9.22786 14.4572 8.95809 15.0494C8.9328 15.1049 8.90582 15.1588 8.8721 15.2294C5.91136 13.5016 2.96074 11.7788 0.00506592 10.0543C0.0236127 10.0055 0.0354151 9.97014 0.0505898 9.93481C0.854844 8.08917 1.91707 6.4101 3.32325 4.95647C4.50181 3.73838 5.8591 2.76425 7.3597 1.9836C8.93954 1.16088 10.6054 0.590536 12.3606 0.28265C13.1513 0.143007 13.9489 0.0521556 14.7548 0.0336488C14.8256 0.0336488 14.8981 0.0134595 14.9689 0.00168244C15.3517 0.00168244 15.7327 0.00168244 16.1154 0.00168244L16.1087 0Z" fill="#292A6B"/>
<path d="M71.0088 48C70.9615 47.9916 70.9127 47.9748 70.8654 47.9731C70.191 47.9647 69.5166 47.9563 68.8422 47.9495C67.4039 47.9378 65.9657 47.9277 64.5275 47.9159C64.2021 47.9125 63.8767 47.9075 63.5496 47.9024C63.5159 47.9024 63.4838 47.8974 63.4535 47.8957C63.4484 47.8839 63.4451 47.8789 63.4451 47.8738C63.4451 47.8688 63.4451 47.8637 63.4451 47.8587C63.4451 47.8536 63.4484 47.8486 63.4518 47.8435C63.4569 47.8334 63.4636 47.825 63.4703 47.8149C63.4771 47.8065 63.4838 47.7964 63.4906 47.788C63.5041 47.7695 63.5176 47.7527 63.531 47.7342C67.2724 42.7929 71.0155 37.8515 74.7569 32.9085C74.7636 32.9001 74.7704 32.89 74.7771 32.8816C74.7839 32.8732 74.7906 32.8631 74.7957 32.8547C74.799 32.8496 74.8024 32.8446 74.8041 32.8412C74.8075 32.8362 74.8092 32.8311 74.8108 32.8261C74.8125 32.821 74.8142 32.816 74.8176 32.7941C71.0054 27.5516 67.1864 22.3024 63.3456 17.0212C63.44 17.0212 63.494 17.0212 63.5479 17.0212C65.7229 17.0212 67.898 17.0212 70.073 17.0179C70.1994 17.0179 70.2753 17.0549 70.3512 17.1558C73.0135 20.6772 75.6792 24.1969 78.3448 27.7165C78.3954 27.7838 78.4477 27.8494 78.5151 27.9369C78.8051 27.5735 79.0715 27.2084 79.3447 26.8501C79.6195 26.4883 79.8927 26.1249 80.1675 25.7632C80.4423 25.4015 80.7171 25.0381 80.9903 24.6763C81.2651 24.3146 81.5383 23.9512 81.8131 23.5895C82.0879 23.2278 82.3611 22.8644 82.6359 22.5026C82.9107 22.1409 83.1839 21.7775 83.4587 21.4158C83.7335 21.0541 84.0083 20.6923 84.2815 20.3289C84.5563 19.9672 84.8295 19.6038 85.1043 19.2421C85.3791 18.8803 85.6523 18.5169 85.9271 18.1552C86.2002 17.7935 86.4734 17.4334 86.7583 17.0583C88.1122 18.3722 89.4527 19.6711 90.8032 20.9817C87.9369 24.922 85.0739 28.8589 82.2059 32.8025C82.2413 32.853 82.27 32.8984 82.3037 32.9422C85.4904 37.15 88.6771 41.3594 91.8637 45.5672C92.4185 46.3007 92.9748 47.0343 93.5296 47.7678C93.5481 47.7931 93.5751 47.8099 93.5987 47.8318V47.8654C93.5481 47.8654 93.4975 47.8637 93.447 47.8637C92.4808 47.8721 91.5147 47.8822 90.5469 47.8923C89.2942 47.9041 88.0414 47.9159 86.787 47.926C86.4666 47.9293 86.1463 47.926 85.8209 47.926C83.3896 44.5847 80.9599 41.2416 78.5185 37.8852C78.4696 37.9474 78.4342 37.9878 78.4022 38.0332C76.0198 41.3089 73.6373 44.5847 71.2566 47.8604C71.2246 47.9041 71.201 47.9546 71.1723 48.0017C71.1167 48.0017 71.0593 48.0017 71.0037 48.0017L71.0088 48Z" fill="#292A6B"/>
<path d="M93.8617 24.9119L92.8501 24.8883L93.0861 14.6759L82.8551 15.0763L82.8163 14.0686L94.1214 13.6244L93.8617 24.9119Z" fill="#292A6B"/>
</svg>
