<svg width="342" height="64" viewBox="0 0 342 64" fill="none" xmlns="http://www.w3.org/2000/svg">
<g clip-path="url(#clip0_354_442)">
<path d="M157.886 29.3934C153.958 29.3934 150.703 28.0991 148.12 25.5059C145.535 22.9149 144.244 19.7093 144.244 15.8913C144.244 12.0733 145.537 8.86767 148.12 6.27672C150.705 3.68576 153.96 2.38916 157.886 2.38916C160.246 2.38916 162.427 2.94773 164.428 4.06263C166.428 5.17752 167.989 6.69172 169.106 8.60073L165.379 10.7587C164.682 9.46887 163.67 8.44594 162.341 7.68997C161.013 6.93399 159.527 6.55488 157.886 6.55488C155.102 6.55488 152.848 7.43648 151.121 9.19519C149.395 10.9561 148.531 13.1882 148.531 15.8913C148.531 18.5944 149.395 20.8265 151.121 22.5874C152.848 24.3484 155.102 25.2277 157.886 25.2277C159.527 25.2277 161.017 24.8509 162.359 24.0926C163.701 23.3367 164.709 22.3137 165.379 21.0239L169.106 23.1437C168.011 25.0527 166.464 26.5714 164.466 27.6998C162.465 28.8281 160.273 29.3912 157.886 29.3912V29.3934Z" fill="white"/>
<path d="M189.458 28.9088L187.632 23.664H176.525L174.697 28.9088H170.037L179.506 2.87134H184.649L194.08 28.9088H189.458ZM177.939 19.6464H186.214L182.075 7.89174L177.936 19.6464H177.939Z" fill="white"/>
<path d="M211.75 28.909L206.233 19.4245H201.164V28.909H196.877V2.87378H207.314C209.65 2.87378 211.633 3.68584 213.261 5.30995C214.888 6.93407 215.702 8.91262 215.702 11.2434C215.702 12.9056 215.223 14.4243 214.268 15.7994C213.31 17.1745 212.062 18.175 210.522 18.7941L216.448 28.9112H211.752L211.75 28.909ZM201.164 6.8892V15.593H207.314C208.456 15.593 209.425 15.1713 210.221 14.3278C211.017 13.4844 211.415 12.457 211.415 11.2411C211.415 10.0253 211.017 8.99786 210.221 8.1544C209.425 7.31093 208.456 6.8892 207.314 6.8892H201.164Z" fill="white"/>
<path d="M224.013 24.8173H235.568V28.909H219.726V2.87378H235.382V6.96547H224.013V13.7356H234.451V17.7892H224.013V24.8195V24.8173Z" fill="white"/>
<path d="M264.643 15.4449V17.2305C264.643 20.8018 263.463 23.7203 261.102 25.9904C258.742 28.2584 255.66 29.3934 251.858 29.3934C247.832 29.3934 244.509 28.0924 241.886 25.4879C239.264 22.8835 237.954 19.6846 237.954 15.8913C237.954 12.098 239.264 8.93049 241.886 6.31261C244.507 3.69473 247.758 2.38916 251.633 2.38916C254.068 2.38916 256.294 2.94773 258.306 4.06263C260.318 5.17752 261.885 6.67826 263.002 8.56259L259.31 10.6825C258.614 9.44195 257.584 8.44594 256.217 7.68772C254.85 6.93175 253.322 6.55264 251.631 6.55264C248.897 6.55264 246.649 7.44545 244.884 9.23108C243.12 11.0167 242.238 13.2487 242.238 15.9272C242.238 18.6056 243.126 20.8242 244.905 22.5852C246.681 24.3461 249.012 25.2255 251.894 25.2255C254.205 25.2255 256.087 24.6871 257.541 23.6081C258.996 22.5291 259.92 21.0844 260.318 19.2741H251.595V15.4426H264.641L264.643 15.4449Z" fill="white"/>
<path d="M268.557 2.87378H272.844V28.9112H268.557V2.87378Z" fill="white"/>
<path d="M284.698 28.9088L275.641 2.87134H280.337L287.27 23.7381L294.241 2.87134H298.902L289.844 28.9088H284.7H284.698Z" fill="white"/>
<path d="M305.981 24.8173H317.536V28.909H301.694V2.87378H317.349V6.96547H305.981V13.7356H316.419V17.7892H305.981V24.8195V24.8173Z" fill="white"/>
<path d="M336.323 28.909L330.807 19.4245H325.737V28.909H321.45V2.87378H331.888C334.224 2.87378 336.206 3.68584 337.834 5.30995C339.462 6.93407 340.275 8.91262 340.275 11.2434C340.275 12.9056 339.797 14.4243 338.841 15.7994C337.883 17.1745 336.636 18.175 335.096 18.7941L341.022 28.9112H336.326L336.323 28.909ZM325.737 6.8892V15.593H331.888C333.03 15.593 333.999 15.1713 334.795 14.3278C335.59 13.4844 335.988 12.457 335.988 11.2411C335.988 10.0253 335.59 8.99786 334.795 8.1544C333.999 7.31093 333.03 6.8892 331.888 6.8892H325.737Z" fill="white"/>
<path d="M162.445 63.4708L156.588 53.4883H148.884V63.4708H147.036V39.1248H156.656C158.632 39.1248 160.327 39.8314 161.746 41.2469C163.162 42.6624 163.872 44.3538 163.872 46.3256C163.872 47.9721 163.366 49.4325 162.357 50.7089C161.345 51.9853 160.062 52.831 158.506 53.2483L164.571 63.473H162.445V63.4708ZM148.887 40.8633V51.7498H156.66C158.146 51.7498 159.414 51.2226 160.46 50.1683C161.505 49.114 162.029 47.8331 162.029 46.3256C162.029 44.8181 161.505 43.5305 160.46 42.465C159.414 41.3994 158.146 40.8655 156.66 40.8655H148.887V40.8633Z" fill="#FFB74D"/>
<path d="M170.252 61.7323H182.453V63.4708H168.407V39.1248H182.28V40.8633H170.255V50.3231H181.41V52.0616H170.255V61.73L170.252 61.7323Z" fill="#FFB74D"/>
<path d="M198.102 63.8544C194.431 63.8544 191.398 62.643 189.004 60.2203C186.609 57.7976 185.413 54.823 185.413 51.2989C185.413 47.7747 186.609 44.8002 189.004 42.3775C191.396 39.9548 194.428 38.7434 198.102 38.7434C200.332 38.7434 202.378 39.2706 204.237 40.3249C206.096 41.3792 207.537 42.8015 208.56 44.5848L206.921 45.5248C206.107 44.0173 204.911 42.8059 203.331 41.8907C201.75 40.9754 200.008 40.5178 198.102 40.5178C194.941 40.5178 192.344 41.5564 190.312 43.6315C188.278 45.7065 187.261 48.2638 187.261 51.3011C187.261 54.3385 188.278 56.8958 190.312 58.9708C192.344 61.0458 194.943 62.0845 198.102 62.0845C200.006 62.0845 201.762 61.6201 203.364 60.6936C204.967 59.7672 206.177 58.5267 206.988 56.9721L208.627 57.912C207.627 59.7201 206.188 61.1647 204.304 62.2415C202.423 63.3205 200.354 63.8589 198.099 63.8589L198.102 63.8544Z" fill="#FFB74D"/>
<path d="M228.392 63.4708L222.536 53.4883H214.832V63.4708H212.984V39.1248H222.604C224.58 39.1248 226.275 39.8314 227.693 41.2469C229.11 42.6624 229.82 44.3538 229.82 46.3256C229.82 47.9721 229.314 49.4325 228.305 50.7089C227.293 51.9853 226.009 52.831 224.454 53.2483L230.519 63.473H228.392V63.4708ZM214.834 40.8633V51.7498H222.608C224.094 51.7498 225.362 51.2226 226.407 50.1683C227.453 49.114 227.977 47.8331 227.977 46.3256C227.977 44.8181 227.453 43.5305 226.407 42.465C225.362 41.3994 224.094 40.8655 222.608 40.8655H214.834V40.8633Z" fill="#FFB74D"/>
<path d="M249.255 61.5236C247.616 63.0782 245.449 63.8544 242.753 63.8544C240.058 63.8544 237.897 63.0782 236.27 61.5236C234.642 59.9713 233.831 57.9075 233.831 55.3323V39.1248H235.679V55.3323C235.679 57.3736 236.295 59.0067 237.526 60.236C238.758 61.4653 240.501 62.08 242.756 62.08C245.01 62.08 246.757 61.4653 248.003 60.236C249.246 59.0067 249.868 57.3736 249.868 55.3323V39.1248H251.716V55.3323C251.716 57.9053 250.898 59.9713 249.259 61.5236H249.255Z" fill="#FFB74D"/>
<path d="M257.427 39.1248H259.275V63.4708H257.427V39.1248Z" fill="#FFB74D"/>
<path d="M280.328 39.1248V40.8633H272.66V63.4708H270.778V40.8633H263.11V39.1248H280.328Z" fill="#FFB74D"/>
<path d="M284.161 39.1248H286.009V63.4708H284.161V39.1248Z" fill="#FFB74D"/>
<path d="M308.108 39.1248H309.955V63.4708H308.317L293.922 42.5323V63.4708H292.074V39.1248H293.677L308.108 60.0633V39.1248Z" fill="#FFB74D"/>
<path d="M339.235 52.1333V53.0733C339.235 56.1106 338.153 58.6679 335.993 60.7429C333.832 62.8179 330.984 63.8566 327.452 63.8566C323.734 63.8566 320.668 62.6452 318.251 60.2225C315.834 57.7998 314.627 54.8252 314.627 51.3011C314.627 47.7769 315.823 44.8024 318.217 42.3797C320.609 39.957 323.642 38.7456 327.315 38.7456C329.545 38.7456 331.596 39.2795 333.468 40.345C335.339 41.4128 336.784 42.8373 337.807 44.6229L336.168 45.5965C335.354 44.0666 334.152 42.8373 332.56 41.9108C330.968 40.9844 329.219 40.52 327.313 40.52C324.152 40.52 321.556 41.5586 319.523 43.6337C317.489 45.7087 316.473 48.266 316.473 51.3033C316.473 54.3407 317.496 56.898 319.539 58.973C321.583 61.048 324.222 62.0866 327.452 62.0866C330.31 62.0866 332.623 61.3105 334.39 59.7559C336.155 58.2036 337.144 56.243 337.353 53.8786H327V52.1401H339.235V52.1333Z" fill="#FFB74D"/>
<path d="M21.4782 0C21.5794 0.0157028 21.6806 0.0403786 21.784 0.0426218C24.9538 0.152541 27.982 0.84795 30.8303 2.25671C33.1683 3.41423 35.2388 4.94189 36.9923 6.87557C39.0291 9.12107 40.3307 11.7434 40.9849 14.6933C41.4098 16.6023 41.5559 18.536 41.466 20.4854C41.3491 23.0203 40.7421 25.443 39.753 27.776C38.847 29.9138 37.6622 31.8923 36.2887 33.761C35.05 35.4456 33.6764 37.0182 32.2039 38.5009C29.5309 41.1951 26.8534 43.8825 24.1782 46.5744C23.4386 47.3169 22.7012 48.0617 21.9638 48.8065C21.9076 48.8648 21.8514 48.9231 21.7997 48.9792C21.8087 48.9994 21.8109 49.0061 21.8132 49.0128C21.8177 49.0173 21.8222 49.024 21.8289 49.0263C21.8424 49.0308 21.8582 49.033 21.8716 49.0353C21.9009 49.0353 21.9323 49.0353 21.9616 49.0353C28.7283 49.0353 35.4951 49.0353 42.2618 49.0375C42.2776 49.0375 42.2911 49.042 42.3068 49.0442C42.3135 49.0442 42.3203 49.0487 42.3585 49.0644C42.3787 49.3807 42.3563 49.715 42.3697 50.038C42.39 50.0515 42.3945 50.0559 42.4012 50.0582C42.408 50.0604 42.4169 50.0649 42.4214 50.0627C42.4417 50.0559 42.4642 50.0492 42.4844 50.038C46.1713 47.9091 49.8604 45.7781 53.5472 43.6492C53.554 43.647 53.5607 43.6492 53.6012 43.6425C53.6327 43.7188 53.6709 43.804 53.7024 43.8915C54.0396 44.7843 54.4712 45.6255 55.0355 46.3972C56.2157 48.0101 57.7916 49.051 59.7025 49.6028C60.6422 49.8742 61.6021 50.0111 62.5778 50.0649C63.3894 50.1098 64.1965 50.0918 65.0013 50.0088C66.2107 49.8855 67.3842 49.6208 68.4498 49.0173C70.3135 47.9585 71.4241 46.3725 71.7096 44.2392C71.8782 42.9718 71.7703 41.729 71.2689 40.5446C70.4821 38.6827 69.0905 37.4713 67.1639 36.8656C66.0961 36.5291 64.9968 36.4147 63.884 36.4147C57.5893 36.4147 51.2947 36.4147 45 36.4147C44.8966 36.4147 44.7954 36.4147 44.6785 36.4147C44.6785 36.3205 44.674 36.2555 44.6785 36.1904C44.7482 35.2146 44.8202 34.2388 44.8898 33.263C44.9393 32.5765 44.9888 31.8923 45.0382 31.2059C45.1102 30.2233 45.1821 29.2386 45.254 28.256C45.3035 27.5696 45.3507 26.8854 45.4002 26.1989C45.4699 25.2299 45.5418 24.2608 45.6137 23.2939C45.6632 22.6165 45.7104 21.9368 45.7599 21.2593C45.8318 20.2768 45.9037 19.292 45.9734 18.3094C46.0251 17.5938 46.0723 16.8782 46.1241 16.1626C46.1915 15.2227 46.2634 14.285 46.3309 13.3451C46.3826 12.6452 46.4298 11.9431 46.4792 11.2432C46.5489 10.2898 46.6186 9.33642 46.6883 8.38079C46.7378 7.69436 46.7872 7.01017 46.8367 6.32373C46.9064 5.34791 46.9783 4.3721 47.0503 3.39628C47.0975 2.74126 47.1447 2.08398 47.1941 1.42895C47.1986 1.37736 47.2054 1.32801 47.2121 1.26295H82.6825C82.6825 1.26295 82.7005 1.27865 82.705 1.28314C82.7095 1.28763 82.7162 1.29436 82.7162 1.30109C82.723 1.35941 82.732 1.41998 82.732 1.4783C82.732 5.73824 82.7297 10.0004 82.7275 14.2604C82.7275 14.2805 82.7162 14.303 82.7005 14.3478H60.4017C60.3342 14.5385 59.7385 22.4034 59.761 22.769C59.8441 22.7735 59.9296 22.7802 60.0173 22.7802C61.4043 22.7802 62.7891 22.7825 64.1762 22.7802C65.2103 22.778 66.2445 22.7914 67.2741 22.8857C71.8939 23.3074 76.0326 24.8866 79.5599 27.9487C82.1475 30.1942 83.892 32.9713 84.8631 36.242C85.2476 37.5341 85.4971 38.8531 85.6432 40.1924C85.7781 41.4284 85.8321 42.6667 85.8006 43.9072C85.7422 46.2738 85.3914 48.5911 84.5821 50.8276C83.4716 53.8986 81.6192 56.4402 79.0856 58.4995C76.19 60.8505 72.91 62.3893 69.2614 63.1521C67.8361 63.4504 66.3973 63.6231 64.9428 63.6949C63.5715 63.7622 62.2001 63.7398 60.8333 63.6344C57.6028 63.3809 54.4959 62.6428 51.5554 61.2543C49.5704 60.3166 47.7562 59.1277 46.1735 57.6C44.7235 56.2025 43.5342 54.6075 42.5698 52.8421C42.5226 52.7568 42.4776 52.6738 42.408 52.5482C42.39 52.6357 42.3742 52.6783 42.372 52.7232C42.3675 52.7905 42.372 52.8578 42.372 52.9251C42.372 56.0118 42.372 59.0985 42.372 62.1875V62.4656C42.1854 62.515 1.02285 62.5329 0.629435 62.4881C0.624939 62.4006 0.615946 62.3063 0.615946 62.2121C0.615946 59.26 0.615946 56.3079 0.615946 53.3535C0.615946 53.0843 0.622691 52.8151 0.613698 52.546C0.609202 52.4069 0.654164 52.3082 0.748584 52.2095C1.7917 51.1349 2.83032 50.0582 3.86893 48.9814C7.8503 44.8583 11.8317 40.7352 15.813 36.6121C17.7464 34.6089 19.682 32.6102 21.6131 30.6025C22.8338 29.3328 23.9759 27.998 24.9808 26.5489C25.7271 25.4699 26.3881 24.3415 26.8602 23.1145C27.2671 22.0579 27.5099 20.9699 27.4649 19.8326C27.4199 18.7132 27.1884 17.6387 26.6196 16.6606C25.7474 15.1621 24.4525 14.2379 22.7619 13.8566C21.7885 13.6367 20.8016 13.621 19.8124 13.7152C18.486 13.8431 17.2496 14.2379 16.1165 14.9378C14.9295 15.6691 13.9898 16.6539 13.2075 17.7957C12.7152 18.5136 12.3038 19.2763 11.9441 20.0659C11.9104 20.1399 11.8744 20.2117 11.8294 20.3059C7.88178 18.0021 3.94762 15.705 0.00671387 13.4057C0.0314429 13.3406 0.0471795 13.2935 0.0674123 13.2464C1.13975 10.7856 2.55605 8.54679 4.43096 6.60862C6.00237 4.98451 7.81209 3.68566 9.81289 2.6448C11.9193 1.54784 14.1405 0.787382 16.4807 0.376866C17.5351 0.190676 18.5984 0.0695408 19.673 0.0448651C19.7674 0.0448651 19.8641 0.017946 19.9585 0.00224325C20.4688 0.00224325 20.9769 0.00224325 21.4872 0.00224325L21.4782 0Z" fill="white"/>
<path d="M94.6783 63.9999C94.6154 63.9887 94.5502 63.9663 94.4872 63.964C93.588 63.9528 92.6888 63.9416 91.7895 63.9326C89.8719 63.9169 87.9543 63.9035 86.0367 63.8878C85.6028 63.8833 85.1689 63.8766 84.7328 63.8698C84.6878 63.8698 84.6451 63.8631 84.6046 63.8608C84.5979 63.8451 84.5934 63.8384 84.5934 63.8317C84.5934 63.825 84.5934 63.8182 84.5934 63.8115C84.5934 63.8048 84.5979 63.798 84.6024 63.7913C84.6091 63.7778 84.6181 63.7666 84.6271 63.7532C84.6361 63.742 84.6451 63.7285 84.6541 63.7173C84.6721 63.6926 84.6901 63.6702 84.708 63.6455C89.6966 57.0571 94.6873 50.4686 99.6758 43.878C99.6848 43.8667 99.6938 43.8533 99.7028 43.8421C99.7118 43.8308 99.7208 43.8174 99.7275 43.8062C99.732 43.7994 99.7365 43.7927 99.7388 43.7882C99.7433 43.7815 99.7455 43.7748 99.7478 43.768C99.75 43.7613 99.7523 43.7546 99.7568 43.7254C94.6738 36.7354 89.5819 29.7365 84.4608 22.6949C84.5866 22.6949 84.6586 22.6949 84.7305 22.6949C87.6306 22.6949 90.5306 22.6949 93.4306 22.6904C93.5992 22.6904 93.7004 22.7398 93.8016 22.8744C97.3513 27.5695 100.906 32.2624 104.46 36.9553C104.527 37.045 104.597 37.1325 104.687 37.2491C105.073 36.7646 105.429 36.2778 105.793 35.8C106.159 35.3177 106.524 34.8332 106.89 34.3509C107.256 33.8686 107.623 33.384 107.987 32.9017C108.353 32.4194 108.718 31.9349 109.084 31.4526C109.451 30.9703 109.815 30.4857 110.181 30.0034C110.548 29.5211 110.912 29.0366 111.278 28.5543C111.645 28.072 112.011 27.5897 112.375 27.1052C112.742 26.6229 113.106 26.1383 113.472 25.656C113.839 25.1737 114.203 24.6892 114.569 24.2069C114.934 23.7246 115.298 23.2445 115.678 22.7443C117.483 24.4962 119.27 26.228 121.071 27.9755C117.249 33.2292 113.432 38.4784 109.608 43.7366C109.655 43.8039 109.693 43.8645 109.738 43.9228C113.987 49.5332 118.236 55.1458 122.485 60.7562C123.225 61.7342 123.966 62.7123 124.706 63.6904C124.731 63.724 124.767 63.7464 124.798 63.7756V63.8205C124.731 63.8205 124.663 63.8182 124.596 63.8182C123.308 63.8294 122.02 63.8429 120.729 63.8564C119.059 63.8721 117.389 63.8878 115.716 63.9012C115.289 63.9057 114.862 63.9012 114.428 63.9012C111.186 59.4461 107.947 54.9888 104.691 50.5135C104.626 50.5965 104.579 50.6503 104.536 50.7109C101.36 55.0785 98.1831 59.4461 95.0088 63.8137C94.9661 63.8721 94.9346 63.9394 94.8964 64.0022C94.8222 64.0022 94.7458 64.0022 94.6716 64.0022L94.6783 63.9999Z" fill="white"/>
<path d="M125.149 33.2158L123.8 33.1843L124.115 19.5678L110.473 20.1017L110.422 18.758L125.495 18.1658L125.149 33.2158Z" fill="white"/>
</g>
<defs>
<clipPath id="clip0_354_442">
<rect width="341.022" height="64" fill="white"/>
</clipPath>
</defs>
</svg>
