<svg width="278" height="56" viewBox="0 0 278 56" fill="none" xmlns="http://www.w3.org/2000/svg">
<path d="M145.539 29.8726C142.698 29.8726 140.344 28.9177 138.476 27.0066C136.606 25.0967 135.671 22.7325 135.671 19.9163C135.671 17.1002 136.605 14.7372 138.476 12.8261C140.345 10.9162 142.699 9.96005 145.539 9.96005C147.247 9.96005 148.824 10.3715 150.271 11.1945C151.717 12.0174 152.846 13.1329 153.655 14.541L150.959 16.1322C150.455 15.182 149.723 14.428 148.761 13.8691C147.799 13.3113 146.726 13.033 145.539 13.033C143.526 13.033 141.895 13.6824 140.645 14.981C139.396 16.2797 138.771 17.9256 138.771 19.9175C138.771 21.9095 139.396 23.5566 140.645 24.8541C141.894 26.1527 143.526 26.802 145.539 26.802C146.726 26.802 147.803 26.5237 148.775 25.966C149.745 25.4082 150.474 24.6543 150.959 23.7029L153.655 25.2667C152.863 26.6748 151.744 27.795 150.298 28.6263C148.851 29.4588 147.265 29.8738 145.539 29.8738V29.8726Z" fill="#1E4D80"/>
<path d="M168.375 29.5157L167.054 25.6483H159.019L157.698 29.5157H154.328L161.176 10.3167H164.897L171.719 29.5157H168.375ZM160.045 22.6859H166.03L163.037 14.0187L160.045 22.6859Z" fill="#1E4D80"/>
<path d="M184.499 29.5157L180.509 22.5218H176.841V29.5157H173.741V10.3167H181.291C182.98 10.3167 184.413 10.916 185.592 12.1136C186.769 13.3112 187.358 14.7692 187.358 16.4888C187.358 17.7137 187.012 18.834 186.32 19.8484C185.628 20.8628 184.724 21.5989 183.61 22.0568L187.897 29.5169H184.5L184.499 29.5157ZM176.841 13.279V19.6974H181.29C182.116 19.6974 182.818 19.387 183.393 18.765C183.968 18.143 184.255 17.3843 184.255 16.4888C184.255 15.5933 183.968 14.8346 183.393 14.2126C182.818 13.5918 182.116 13.2802 181.29 13.2802H176.841V13.279Z" fill="#1E4D80"/>
<path d="M193.368 26.4986H201.727V29.5157H190.268V10.3167H201.591V13.3337H193.368V18.325H200.918V21.3147H193.368V26.4986Z" fill="#1E4D80"/>
<path d="M222.757 19.5867V20.9032C222.757 23.5362 221.903 25.6899 220.195 27.362C218.487 29.0352 216.259 29.8713 213.508 29.8713C210.596 29.8713 208.193 28.9116 206.297 26.9909C204.4 25.0715 203.452 22.7121 203.452 19.915C203.452 17.1179 204.4 14.7822 206.297 12.8521C208.193 10.922 210.543 9.95868 213.347 9.95868C215.109 9.95868 216.717 10.3702 218.173 11.1931C219.628 12.0161 220.761 13.1221 221.57 14.5123L218.901 16.0761C218.397 15.1616 217.652 14.4266 216.664 13.8677C215.675 13.31 214.57 13.0317 213.347 13.0317C211.369 13.0317 209.743 13.6905 208.468 15.007C207.191 16.3235 206.554 17.9694 206.554 19.9435C206.554 21.9176 207.197 23.5552 208.482 24.8527C209.766 26.1513 211.452 26.8007 213.537 26.8007C215.208 26.8007 216.57 26.4035 217.621 25.6079C218.672 24.8123 219.342 23.7479 219.63 22.4124H213.32V19.5879H222.757V19.5867Z" fill="#1E4D80"/>
<path d="M225.587 10.3167H228.687V29.5157H225.587V10.3167Z" fill="#1E4D80"/>
<path d="M237.261 29.5157L230.71 10.3167H234.107L239.122 25.703L244.164 10.3167H247.535L240.983 29.5157H237.262H237.261Z" fill="#1E4D80"/>
<path d="M252.656 26.4986H261.015V29.5157H249.556V10.3167H260.879V13.3337H252.656V18.325H260.206V21.3147H252.656V26.4986Z" fill="#1E4D80"/>
<path d="M274.603 29.5157L270.613 22.5218H266.946V29.5157H263.845V10.3167H271.395C273.084 10.3167 274.517 10.916 275.696 12.1136C276.873 13.3112 277.462 14.7692 277.462 16.4888C277.462 17.7137 277.116 18.834 276.424 19.8484C275.732 20.8628 274.828 21.5989 273.714 22.0568L278.001 29.5169H274.604L274.603 29.5157ZM266.946 13.279V19.6974H271.394C272.22 19.6974 272.922 19.387 273.497 18.765C274.072 18.143 274.36 17.3843 274.36 16.4888C274.36 15.5933 274.072 14.8346 273.497 14.2126C272.922 13.5918 272.22 13.2802 271.394 13.2802H266.946V13.279Z" fill="#1E4D80"/>
<path d="M148.62 55.1257L148.692 55.251H148.837H150.375H150.81L150.592 54.8753L146.364 47.6089C147.406 47.262 148.277 46.638 148.972 45.7428C149.738 44.7585 150.122 43.6268 150.122 42.3583C150.122 40.8389 149.582 39.5274 148.511 38.4381C147.44 37.3486 146.149 36.7983 144.652 36.7983H137.694H137.444V37.0483V55.001V55.251H137.694H139.03H139.28V55.001V47.8908H144.457L148.62 55.1257ZM144.651 46.1077H139.279V38.5803H144.651C145.657 38.5803 146.509 38.9454 147.219 39.6834L147.399 39.51L147.219 39.6834C147.931 40.4231 148.284 41.3084 148.284 42.3571C148.284 43.4056 147.93 44.2868 147.22 45.0167C146.51 45.7465 145.658 46.1077 144.651 46.1077Z" fill="#F57F40" stroke="#F57F40" stroke-width="0.5"/>
<path d="M163.557 53.719V53.469H163.307H154.733V46.8384H162.551H162.801V46.5884V45.3064V45.0564H162.551H154.733V38.5803H163.181H163.431V38.3303V37.0483V36.7983H163.181H153.147H152.897V37.0483V55.001V55.251H153.147H163.307H163.557V55.001V53.719Z" fill="#F57F40" stroke="#F57F40" stroke-width="0.5"/>
<path d="M174.627 55.5329H174.823L174.825 55.5263C176.423 55.4955 177.897 55.0879 179.243 54.3012C180.641 53.4835 181.717 52.3864 182.462 51.0114L182.578 50.7984L182.368 50.6763L181.183 49.9842L180.955 49.8512L180.835 50.0858C180.268 51.1883 179.429 52.0686 178.308 52.7295C177.186 53.3901 175.962 53.7212 174.627 53.7212C172.404 53.7212 170.592 52.9801 169.173 51.5027L169.173 51.5027C167.75 50.0227 167.036 48.1999 167.036 46.0211C167.036 43.8424 167.749 42.0207 169.173 40.5395C170.592 39.0632 172.404 38.3211 174.627 38.3211C175.963 38.3211 177.179 38.6477 178.282 39.2995C179.387 39.9529 180.219 40.8142 180.785 41.8818L180.907 42.1121L181.132 41.9807L182.317 41.2886L182.529 41.1646L182.409 40.9502C181.646 39.5936 180.572 38.5139 179.19 37.7143L179.19 37.7143C177.805 36.9137 176.283 36.5141 174.627 36.5141C171.909 36.5141 169.649 37.4323 167.867 39.2706L167.867 39.2707C166.088 41.107 165.2 43.3621 165.2 46.0235C165.2 48.6848 166.088 50.9411 167.867 52.7763C169.649 54.6159 171.909 55.5329 174.627 55.5329Z" fill="#F57F40" stroke="#F57F40" stroke-width="0.5"/>
<path d="M196.32 55.1257L196.392 55.251H196.536H198.075H198.509L198.291 54.8753L194.064 47.6089C195.105 47.262 195.976 46.638 196.672 45.7428C197.437 44.7585 197.821 43.6268 197.821 42.3583C197.821 40.8389 197.282 39.5274 196.211 38.4381C195.14 37.3486 193.849 36.7983 192.351 36.7983H185.393H185.143V37.0483V55.001V55.251H185.393H186.729H186.979V55.001V47.8908H192.156L196.32 55.1257ZM192.351 46.1077H186.979V38.5803H192.351C193.358 38.5803 194.209 38.9454 194.919 39.6834L195.1 39.51L194.919 39.6834C195.631 40.4231 195.985 41.3084 195.985 42.3571C195.985 43.4056 195.63 44.2868 194.92 45.0167C194.211 45.7465 193.358 46.1077 192.351 46.1077Z" fill="#F57F40" stroke="#F57F40" stroke-width="0.5"/>
<path d="M200.469 36.7971H200.219V37.0471V48.999C200.219 50.953 200.827 52.5439 202.06 53.7436C203.291 54.9426 204.921 55.5329 206.923 55.5329C208.886 55.5329 210.494 54.9656 211.725 53.8144H211.727L211.8 53.7441C213.041 52.5446 213.653 50.9535 213.653 48.999V37.0471V36.7971H213.403H212.067H211.817V37.0471V48.999C211.817 50.4511 211.385 51.5882 210.541 52.4394C209.699 53.2861 208.507 53.7247 206.923 53.7247C205.34 53.7247 204.151 53.286 203.32 52.4402C202.483 51.5892 202.055 50.4507 202.055 48.999V37.0471V36.7971H201.805H200.469Z" fill="#F57F40" stroke="#F57F40" stroke-width="0.5"/>
<path d="M217.537 36.7983H217.287V37.0483V55.001V55.251H217.537H218.873H219.123V55.001V37.0483V36.7983H218.873H217.537Z" fill="#F57F40" stroke="#F57F40" stroke-width="0.5"/>
<path d="M234.351 37.0483V36.7983H234.101H234.1H221.645H221.395V37.0483V38.3303V38.5803H221.645H226.942V55.001V55.251H227.192H228.554H228.804V55.001V38.5803H234.101H234.351V38.3303V37.0483Z" fill="#F57F40" stroke="#F57F40" stroke-width="0.5"/>
<path d="M236.874 36.7983H236.624V37.0483V55.001V55.251H236.874H238.21H238.46V55.001V37.0483V36.7983H238.21H236.874Z" fill="#F57F40" stroke="#F57F40" stroke-width="0.5"/>
<path d="M255.781 37.0483V36.7983H255.531H254.195H254.194H253.944V37.0483V51.672L243.964 36.9083L243.889 36.7983H243.756H242.597H242.347V37.0483V55.001V55.251H242.597H243.933H244.183V55.001V40.379L254.138 55.1408L254.213 55.251H254.346H255.531H255.781V55.001V37.0483Z" fill="#F57F40" stroke="#F57F40" stroke-width="0.5"/>
<path d="M261.325 39.2706L261.325 39.2707C259.546 41.107 258.658 43.3621 258.658 46.0235C258.658 48.6856 259.556 50.9422 261.352 52.7771C263.15 54.6166 265.435 55.5329 268.186 55.5329C270.795 55.5329 272.92 54.7503 274.538 53.1664C276.15 51.5887 276.958 49.6388 276.958 47.3329V46.6407V46.6371V46.3871H276.708H267.859H267.609V46.6371V47.9191V48.1691H267.859H275.069C274.876 49.7299 274.198 51.0257 273.037 52.0677C271.814 53.1638 270.204 53.7224 268.186 53.7224C265.909 53.7224 264.069 52.9801 262.642 51.5034L262.642 51.5033C261.21 50.0233 260.493 48.2007 260.493 46.0223C260.493 43.8436 261.206 42.0219 262.63 40.5407C264.049 39.0644 265.861 38.3223 268.084 38.3223C269.419 38.3223 270.639 38.6533 271.751 39.3135C272.865 39.9749 273.701 40.8476 274.266 41.9327L274.39 42.1692L274.618 42.031L275.803 41.3127L276.01 41.1873L275.892 40.9764C275.129 39.6195 274.05 38.5366 272.66 37.7278L272.66 37.7277C271.268 36.9187 269.741 36.5141 268.085 36.5141C265.367 36.5141 263.107 37.4323 261.325 39.2706Z" fill="#F57F40" stroke="#F57F40" stroke-width="0.5"/>
<path d="M121.479 55.1307H105.14L76.0943 9.33908L92.2306 9.37357L121.479 55.1307Z" fill="#1E4D80"/>
<path d="M62.6024 55.29C62.6024 55.29 96.8928 40.3116 107.179 6.24945L121.411 12.7011C121.411 12.7011 106.373 46.8762 67.8467 55.29H62.6024Z" fill="#F57F40"/>
<path d="M126.493 20.7284L117.339 5.20291L98.983 5.66909L120.333 0L126.493 20.7284Z" fill="#F57F40"/>
<path d="M35.0515 43.9685L34.5535 55.2912H0V44.6785L7.72037 39.1699C8.85201 38.3814 10.9645 36.6856 14.0589 34.0835C17.1534 31.4815 19.1723 29.4812 20.1146 28.0838C21.0568 26.6865 21.5291 25.2225 21.5291 23.6896C21.5291 22.1567 21.1176 21.0483 20.2958 20.1576C19.4739 19.268 18.3961 18.8221 17.0622 18.8221C13.7281 18.8221 11.8611 21.4812 11.4613 26.7983L0 24.5351C0.841712 19.1051 2.92846 15.0664 6.26257 12.4192C9.59552 9.77195 13.5329 8.44833 18.0734 8.44833C22.9904 8.44833 27.0049 9.7886 30.1169 12.4703C33.2289 15.1521 34.7849 18.7233 34.7849 23.1842C34.7849 26.1585 33.9374 28.9865 32.2434 31.667C30.5495 34.3487 25.5927 38.4492 17.3755 43.9697H35.0503L35.0515 43.9685Z" fill="#1E4D80"/>
<path d="M67.6573 20.5464H48.6533L48.1214 27.0694C50.5799 25.3343 53.3038 24.4674 56.2942 24.4674C60.2362 24.4674 63.6814 25.8421 66.6274 28.5904C69.5734 31.34 71.0464 35.0123 71.0464 39.6087C71.0464 44.4537 69.3302 48.396 65.8967 51.4381C62.4632 54.4801 58.0782 56.0012 52.7403 56.0012C48.0887 56.0012 44.0636 54.756 40.6641 52.267C37.2633 49.7779 35.1766 46.3017 34.4015 41.8409L46.0966 40.3877C46.8717 43.7449 48.9865 45.4241 52.4422 45.4241C54.1911 45.4241 55.56 44.883 56.5455 43.802C57.531 42.721 58.0244 41.4021 58.0244 39.8478C58.0244 38.0901 57.4597 36.7165 56.3304 35.7247C55.2011 34.734 53.8602 34.2381 52.3101 34.2381C50.0059 34.2381 48.2348 35.2074 46.9944 37.1446L36.5958 35.6581L38.589 9.16068H68.8556L67.6596 20.55L67.6573 20.5464Z" fill="#1E4D80"/>
</svg>
