<svg width="258" height="227" viewBox="0 0 258 227" fill="none" xmlns="http://www.w3.org/2000/svg">
<g clip-path="url(#clip0)">
<path d="M221 6.00439C238.001 6.00439 251.833 19.4722 251.833 36.0263C251.833 52.5804 238.001 66.0482 221 66.0482C203.998 66.0482 190.167 52.5804 190.167 36.0263C190.167 19.4722 203.998 6.00439 221 6.00439ZM221 0C200.567 0 184 16.1308 184 36.0263C184 55.9219 200.567 72.0526 221 72.0526C241.433 72.0526 258 55.9219 258 36.0263C258 16.1308 241.433 0 221 0ZM239.5 49.6503L225.341 35.9963L239.358 22.2252L234.992 18.0132L220.978 31.7902L206.832 18.1513L202.5 22.3693L216.662 36.0353L202.642 49.8214L206.974 54.0395L221.018 40.2414L235.174 53.9014L239.5 49.6503Z" fill="#FDFDFD" fill-opacity="0.75"/>
</g>
<path d="M198 96.3333H0V129H198V96.3333ZM16.5 120.833L23.6197 104.5H34.1385L27.0188 120.833H16.5ZM33.5445 120.833L40.6725 104.5H51.1912L44.0715 120.833H33.5445ZM50.5972 120.833L57.717 104.5H68.2357L61.1077 120.833H50.5972ZM67.6418 120.833L74.7615 104.5H85.272L78.1522 120.833H67.6418ZM95.205 120.833H84.6945L91.8142 104.5H102.333L95.205 120.833ZM173.25 120.833C168.696 120.833 165 117.175 165 112.667C165 108.159 168.696 104.5 173.25 104.5C177.812 104.5 181.5 108.159 181.5 112.667C181.5 117.175 177.812 120.833 173.25 120.833ZM198 145.333H0V178H198V145.333ZM16.5 169.833L23.6197 153.5H34.1385L27.0188 169.833H16.5ZM33.5445 169.833L40.6642 153.5H51.183L44.0633 169.833H33.5445ZM50.5972 169.833L57.717 153.5H68.2357L61.1077 169.833H50.5972ZM67.6418 169.833L74.7615 153.5H85.272L78.1522 169.833H67.6418ZM95.205 169.833H84.6945L91.8142 153.5H102.333L95.205 169.833ZM173.25 169.833C168.696 169.833 165 166.175 165 161.667C165 157.159 168.696 153.5 173.25 153.5C177.812 153.5 181.5 157.159 181.5 161.667C181.5 166.175 177.812 169.833 173.25 169.833ZM198 194.333H0V227H198V194.333ZM16.5 218.833L23.6197 202.5H34.1385L27.0188 218.833H16.5ZM33.5445 218.833L40.6642 202.5H51.183L44.0633 218.833H33.5445ZM50.5972 218.833L57.717 202.5H68.2357L61.1077 218.833H50.5972ZM67.6418 218.833L74.7615 202.5H85.272L78.1522 218.833H67.6418ZM95.205 218.833H84.6945L91.8142 202.5H102.333L95.205 218.833ZM173.25 218.833C168.696 218.833 165 215.175 165 210.667C165 206.159 168.696 202.5 173.25 202.5C177.812 202.5 181.5 206.159 181.5 210.667C181.5 215.175 177.812 218.833 173.25 218.833ZM181.5 80H16.5L49.5 31H148.5L181.5 80Z" fill="white" fill-opacity="0.75"/>
<defs>
<clipPath id="clip0">
<rect width="74" height="72.0526" fill="white" transform="translate(184)"/>
</clipPath>
</defs>
</svg>
