<svg width="158" height="154" viewBox="0 0 158 154" fill="none" xmlns="http://www.w3.org/2000/svg">
<g clip-path="url(#clip0_1385_9338)">
<path d="M100.305 34.634H57.7306C56.7604 34.6352 55.8303 35.0205 55.1442 35.7056C54.4582 36.3906 54.0723 37.3193 54.0711 38.2881V132.77L53.5832 132.918L43.1391 136.112C42.6441 136.263 42.1095 136.211 41.6525 135.969C41.1956 135.726 40.8537 135.313 40.7019 134.819L9.63546 33.4915C9.48427 32.9973 9.5358 32.4633 9.77872 32.007C10.0216 31.5506 10.4361 31.2093 10.9309 31.0579L27.0253 26.1371L73.6834 11.8765L89.7777 6.95573C90.0226 6.88046 90.28 6.85416 90.5351 6.87833C90.7902 6.9025 91.0381 6.97667 91.2644 7.09659C91.4908 7.21651 91.6913 7.37983 91.8544 7.5772C92.0175 7.77458 92.14 8.00213 92.2149 8.24683L100.156 34.1468L100.305 34.634Z" fill="#F2F2F2"/>
<path d="M109.595 34.1474L100.024 2.93195C99.8652 2.41184 99.6049 1.92816 99.2583 1.50855C98.9118 1.08893 98.4859 0.74161 98.0049 0.486425C97.5239 0.23124 96.9973 0.0731905 96.4551 0.0213154C95.9129 -0.0305598 95.3658 0.0247555 94.845 0.184095L72.2174 7.10001L25.5617 21.363L2.93407 28.2814C1.88291 28.6037 1.00275 29.3293 0.486803 30.2989C-0.0291469 31.2685 -0.138742 32.4029 0.182079 33.4531L32.8928 140.135C33.1534 140.982 33.6793 141.724 34.3932 142.252C35.1072 142.779 35.9716 143.064 36.8597 143.065C37.2708 143.065 37.6795 143.004 38.0722 142.882L53.5834 138.142L54.0713 137.991V137.482L53.5834 137.63L37.9283 142.417C37.0004 142.7 35.9983 142.603 35.1417 142.149C34.285 141.694 33.6439 140.919 33.3588 139.993L0.65059 33.3094C0.509357 32.8506 0.460133 32.3686 0.505736 31.8908C0.551339 31.4131 0.69087 30.949 0.916346 30.5252C1.14182 30.1014 1.44882 29.7261 1.81974 29.4209C2.19066 29.1157 2.61823 28.8866 3.07796 28.7467L25.7056 21.8283L72.3614 7.56773L94.9891 0.649383C95.3378 0.543122 95.7003 0.488942 96.0649 0.488603C96.8473 0.490357 97.6086 0.742233 98.2373 1.20734C98.866 1.67244 99.329 2.32634 99.5585 3.07324L109.085 34.1474L109.237 34.6346H109.744L109.595 34.1474Z" fill="#3F3D56"/>
<path d="M29.9298 31.1378C29.4596 31.1374 29.0018 30.9866 28.6237 30.7075C28.2456 30.4284 27.9671 30.0356 27.8289 29.5868L24.6866 19.338C24.6021 19.0627 24.5728 18.7734 24.6003 18.4868C24.6279 18.2002 24.7116 17.9218 24.8469 17.6676C24.9822 17.4133 25.1663 17.1881 25.3888 17.0049C25.6112 16.8217 25.8676 16.684 26.1433 16.5998L69.0661 3.47837C69.623 3.3087 70.2244 3.36657 70.7386 3.63926C71.2527 3.91195 71.6375 4.37718 71.8085 4.93285L74.9508 15.1818C75.1206 15.7378 75.0626 16.3384 74.7896 16.8517C74.5165 17.3651 74.0506 17.7493 73.4942 17.9201L30.5713 31.0415C30.3634 31.1052 30.1472 31.1377 29.9298 31.1378Z" fill="#004945"/>
<path d="M46.3905 10.9512C49.0853 10.9512 51.2698 8.76988 51.2698 6.07911C51.2698 3.38833 49.0853 1.20703 46.3905 1.20703C43.6958 1.20703 41.5112 3.38833 41.5112 6.07911C41.5112 8.76988 43.6958 10.9512 46.3905 10.9512Z" fill="#004945"/>
<path d="M46.3905 9.16444C48.0969 9.16444 49.4802 7.78317 49.4802 6.07929C49.4802 4.37541 48.0969 2.99414 46.3905 2.99414C44.6841 2.99414 43.3008 4.37541 43.3008 6.07929C43.3008 7.78317 44.6841 9.16444 46.3905 9.16444Z" fill="white"/>
<path d="M147.022 141.82H64.562C64.0122 141.819 63.4851 141.601 63.0963 141.213C62.7076 140.825 62.4889 140.298 62.4883 139.749V41.0897C62.4889 40.5407 62.7076 40.0144 63.0963 39.6262C63.4851 39.238 64.0122 39.0197 64.562 39.019H147.022C147.572 39.0197 148.099 39.238 148.487 39.6262C148.876 40.0144 149.095 40.5407 149.096 41.0897V139.749C149.095 140.298 148.876 140.825 148.487 141.213C148.099 141.601 147.572 141.819 147.022 141.82Z" fill="#E6E6E6"/>
<path d="M109.085 34.147H57.7309C56.6314 34.1485 55.5774 34.5853 54.8 35.3616C54.0225 36.1379 53.5851 37.1904 53.5835 38.2882V137.63L54.0714 137.481V38.2882C54.0726 37.3195 54.4585 36.3907 55.1446 35.7057C55.8306 35.0207 56.7607 34.6354 57.7309 34.6342H109.237L109.085 34.147ZM153.853 34.147H57.7309C56.6314 34.1485 55.5774 34.5853 54.8 35.3616C54.0225 36.1379 53.5851 37.1904 53.5835 38.2882V149.859C53.5851 150.957 54.0225 152.009 54.8 152.785C55.5774 153.562 56.6314 153.999 57.7309 154H153.853C154.952 153.999 156.006 153.562 156.784 152.785C157.561 152.009 157.999 150.957 158 149.859V38.2882C157.999 37.1904 157.561 36.1379 156.784 35.3616C156.006 34.5853 154.952 34.1485 153.853 34.147ZM157.512 149.859C157.511 150.828 157.125 151.756 156.439 152.441C155.753 153.126 154.823 153.512 153.853 153.513H57.7309C56.7607 153.512 55.8306 153.126 55.1446 152.441C54.4585 151.756 54.0726 150.828 54.0714 149.859V38.2882C54.0726 37.3195 54.4585 36.3907 55.1446 35.7057C55.8306 35.0207 56.7607 34.6354 57.7309 34.6342H153.853C154.823 34.6354 155.753 35.0207 156.439 35.7057C157.125 36.3907 157.511 37.3195 157.512 38.2882V149.859Z" fill="#3F3D56"/>
<path d="M128.236 44.8656H83.347C82.7649 44.865 82.2068 44.6338 81.7952 44.2228C81.3836 43.8118 81.152 43.2545 81.1514 42.6732V31.9546C81.152 31.3734 81.3836 30.8161 81.7952 30.4051C82.2068 29.9941 82.7649 29.7629 83.347 29.7622H128.236C128.819 29.7629 129.377 29.9941 129.788 30.4051C130.2 30.8161 130.431 31.3734 130.432 31.9546V42.6732C130.431 43.2545 130.2 43.8118 129.788 44.2228C129.377 44.6338 128.819 44.865 128.236 44.8656Z" fill="#004945"/>
<path d="M105.792 30.4927C108.487 30.4927 110.671 28.3114 110.671 25.6206C110.671 22.9298 108.487 20.7485 105.792 20.7485C103.097 20.7485 100.913 22.9298 100.913 25.6206C100.913 28.3114 103.097 30.4927 105.792 30.4927Z" fill="#004945"/>
<path d="M105.792 28.5884C107.433 28.5884 108.764 27.2598 108.764 25.6209C108.764 23.9819 107.433 22.6533 105.792 22.6533C104.15 22.6533 102.82 23.9819 102.82 25.6209C102.82 27.2598 104.15 28.5884 105.792 28.5884Z" fill="white"/>
</g>
<defs>
<clipPath id="clip0_1385_9338">
<rect width="158" height="154" fill="white"/>
</clipPath>
</defs>
</svg>
