<svg width="21" height="20" viewBox="0 0 21 20" fill="none" xmlns="http://www.w3.org/2000/svg">
<path d="M10.5 0.25C4.8999 0.25 0.34375 4.62391 0.34375 10C0.34375 15.3761 4.8999 19.75 10.5 19.75C16.1001 19.75 20.6562 15.3761 20.6562 10C20.6562 4.62391 16.1001 0.25 10.5 0.25ZM15.7856 6.73234L9.22314 14.2323C9.15116 14.3147 9.06158 14.3812 8.96049 14.4273C8.8594 14.4735 8.74915 14.4983 8.63721 14.5H8.62402C8.51452 14.5 8.40625 14.4778 8.30623 14.435C8.20621 14.3922 8.11669 14.3297 8.04346 14.2516L5.23096 11.2516C5.15953 11.1788 5.10397 11.0931 5.06753 10.9995C5.0311 10.9059 5.01453 10.8062 5.0188 10.7063C5.02307 10.6064 5.04809 10.5084 5.0924 10.4179C5.1367 10.3275 5.1994 10.2464 5.27679 10.1796C5.35419 10.1127 5.44473 10.0614 5.54308 10.0286C5.64144 9.99578 5.74564 9.98219 5.84954 9.98861C5.95345 9.99502 6.05497 10.0213 6.14814 10.0659C6.24131 10.1106 6.32425 10.1726 6.39209 10.2484L8.60352 12.6072L14.5894 5.76766C14.7236 5.61863 14.9136 5.52631 15.1182 5.51066C15.3228 5.49501 15.5256 5.55728 15.6827 5.68402C15.8399 5.81075 15.9388 5.99176 15.958 6.18793C15.9773 6.3841 15.9154 6.57966 15.7856 6.73234Z" fill="white"/>
</svg>
